<?xml version="1.0" encoding="UTF-8"?>
<svg xmlns="http://www.w3.org/2000/svg" id="Layer_1" data-name="Layer 1" viewBox="0 0 204.9 200.19" width="150" height="147">
  <defs>
    <style>
      .cls-1 {
        fill: #fff;
      }

      .cls-2 {
        fill: #ffb079;
      }
    </style>
  </defs>
  <path class="cls-2" d="M3.86,101.57c0-28.68,9.37-52.4,28.12-71.15C50.73,11.67,74.48,2.27,103.13,2.27s52.14,9.11,70.35,27.32c18.16,18.19,27.27,41.65,27.27,70.3s-9.37,52.4-28.12,71.15c-18.75,18.77-42.45,28.15-71.15,28.15s-52.14-9.11-70.3-27.32C12.97,153.68,3.86,130.25,3.86,101.57Z"/>
  <g>
    <path class="cls-1" d="M30.5,100.94v-42.68c0-.57.38-1.02.96-1.02h14.06c10.99,0,16.17,6.01,16.17,14.82s-5.18,14.82-16.17,14.82h-3.9v14.06c0,.57-.45,1.02-1.02,1.02h-9.14c-.57,0-.96-.45-.96-1.02ZM45.26,77.04c2.94,0,5.82-.76,5.82-4.98s-2.87-4.99-5.82-4.99h-3.64v9.97h3.64Z"/>
    <path class="cls-1" d="M67.67,100.94v-42.68c0-.57.38-1.02.96-1.02h10.29c.51,0,.96.19,1.15.64l11.95,31.18,12.01-31.18c.19-.45.57-.64,1.09-.64h10.28c.57,0,1.02.45,1.02,1.02v42.68c0,.57-.45,1.02-1.02,1.02h-9.14c-.57,0-.96-.45-.96-1.02v-22.56l-8.18,22.75c-.19.51-.64.83-1.15.83h-7.86c-.51,0-1.02-.32-1.21-.83l-8.11-22.75v22.56c0,.57-.45,1.02-1.02,1.02h-9.14c-.57,0-.96-.45-.96-1.02Z"/>
    <path class="cls-1" d="M122.97,79.79c0-13.23,10.61-23.06,23.19-23.06,6.45,0,11.95,2.62,15.91,6.77.45.45.19.89-.13,1.28l-5.69,6.07c-.32.45-.9.45-1.28.13-2.37-2.04-5.3-3.32-8.82-3.32-6.77,0-11.95,5.11-11.95,12.14s5.18,12.08,11.95,12.08c3.51,0,6.45-1.28,8.82-3.32.38-.32.96-.32,1.34.13l5.63,6.07c.32.32.57.77.13,1.21-3.96,4.22-9.46,6.84-15.91,6.84-12.59,0-23.19-9.78-23.19-23Z"/>
    <path class="cls-1" d="M166.96,96.66c0-3.45,2.75-6.26,6.2-6.26s6.13,2.81,6.13,6.26-2.75,6.13-6.13,6.13-6.2-2.75-6.2-6.13Z"/>
  </g>
  <path class="cls-1" d="M102.31,164.81c-22.35,0-42.44-4.54-56.49-11.78-1.64-.85-3.18,1.3-1.81,2.55,11.81,10.75,33.49,17.95,58.3,17.95s46.5-7.21,58.3-17.95c1.37-1.24-.17-3.39-1.81-2.55-14.05,7.24-34.14,11.78-56.49,11.78Z"/>
  <g>
    <path class="cls-1" d="M30.55,137.95v-4.38c0-.24.07-.41.21-.62l9.63-13.28h-8.97c-.31,0-.52-.24-.52-.55v-4.21c0-.31.21-.55.52-.55h14.49c.31,0,.55.24.55.55v4.38c0,.24-.07.41-.21.62l-9.66,13.28h9.66c.31,0,.55.24.55.55v4.21c0,.31-.24.55-.55.55h-15.18c-.31,0-.52-.24-.52-.55Z"/>
    <path class="cls-1" d="M52.14,128.77v-13.87c0-.31.21-.55.52-.55h4.93c.31,0,.55.24.55.55v13.83c0,2.73,1.21,4.31,3.59,4.31s3.59-1.59,3.59-4.31v-13.83c0-.31.24-.55.55-.55h4.93c.31,0,.55.24.55.55v13.87c0,6.76-4.04,10.18-9.62,10.18s-9.59-3.41-9.59-10.18Z"/>
    <path class="cls-1" d="M77.35,137.95v-23.04c0-.31.21-.55.52-.55h12.63c.31,0,.52.24.52.55v4.21c0,.31-.21.55-.52.55h-7.14v4.04h6.69c.31,0,.55.24.55.55v4.24c0,.31-.24.52-.55.52h-6.69v4.17h7.11c.31,0,.55.24.55.55v4.21c0,.31-.24.55-.55.55h-12.59c-.31,0-.52-.24-.52-.55Z"/>
    <path class="cls-1" d="M108.4,138.15l-4.76-7.8h-.76v7.59c0,.31-.24.55-.55.55h-4.93c-.31,0-.52-.24-.52-.55v-23.04c0-.31.21-.55.52-.55h7.59c5.93,0,8.73,3.24,8.73,8,0,3.35-1.38,5.97-4.31,7.21l5.21,8.31c.24.38.07.62-.34.62h-5.24c-.28,0-.48-.1-.62-.34ZM104.84,125.04c1.59,0,3.14-.41,3.14-2.69s-1.55-2.69-3.14-2.69h-1.97v5.38h1.97Z"/>
    <path class="cls-1" d="M119.88,137.95v-23.04c0-.31.21-.55.52-.55h4.93c.31,0,.55.24.55.55v23.04c0,.31-.24.55-.55.55h-4.93c-.31,0-.52-.24-.52-.55Z"/>
    <path class="cls-1" d="M131.4,126.53c0-7.14,5.73-12.45,12.52-12.45,3.48,0,6.45,1.41,8.59,3.66.24.24.1.48-.07.69l-3.07,3.28c-.17.24-.48.24-.69.07-1.28-1.1-2.86-1.79-4.76-1.79-3.66,0-6.45,2.76-6.45,6.55s2.79,6.52,6.45,6.52c1.9,0,3.48-.69,4.76-1.79.21-.17.52-.17.72.07l3.04,3.28c.17.17.31.41.07.65-2.14,2.28-5.11,3.69-8.59,3.69-6.8,0-12.52-5.28-12.52-12.42Z"/>
    <path class="cls-1" d="M157.96,137.95v-23.04c0-.31.21-.55.52-.55h4.93c.31,0,.55.24.55.55v9.14h7.69v-9.14c0-.31.24-.55.55-.55h4.93c.31,0,.52.24.52.55v23.04c0,.31-.21.55-.52.55h-4.93c-.31,0-.55-.24-.55-.55v-8.62h-7.69v8.62c0,.31-.24.55-.55.55h-4.93c-.31,0-.52-.24-.52-.55Z"/>
  </g>
</svg>
